
<svg
        width="14"
        height="14"
        viewBox="0 0 14 14"
        fill="none"
        xmlns="http://www.w3.org/2000/svg"
>
    <path
            d="M0 4C0 1.79086 1.79086 0 4 0H10C12.2091 0 14 1.79086 14 4V10C14 12.2091 12.2091 14 10 14H4C1.79086 14 0 12.2091 0 10V4Z"
            fill="current"
    />
    <path
            d="M10.9146 4.20575C10.8604 4.15108 10.7958 4.10768 10.7248 4.07807C10.6537 4.04845 10.5774 4.0332 10.5004 4.0332C10.4234 4.0332 10.3472 4.04845 10.2761 4.07807C10.205 4.10768 10.1405 4.15108 10.0863 4.20575L5.74042 8.55742L3.91458 6.72575C3.85828 6.67136 3.79181 6.6286 3.71898 6.59989C3.64615 6.57119 3.56838 6.55712 3.49011 6.55847C3.41183 6.55982 3.3346 6.57658 3.2628 6.60779C3.191 6.63899 3.12606 6.68403 3.07167 6.74034C3.01728 6.79664 2.97451 6.86311 2.94581 6.93594C2.91711 7.00877 2.90303 7.08654 2.90439 7.16481C2.90574 7.24309 2.9225 7.32032 2.9537 7.39212C2.98491 7.46392 3.02995 7.52886 3.08625 7.58325L5.32625 9.82325C5.38048 9.87793 5.445 9.92132 5.51608 9.95094C5.58717 9.98055 5.66341 9.9958 5.74042 9.9958C5.81743 9.9958 5.89367 9.98055 5.96475 9.95094C6.03584 9.92132 6.10036 9.87793 6.15458 9.82325L10.9146 5.06325C10.9738 5.00863 11.021 4.94233 11.0534 4.86854C11.0857 4.79475 11.1024 4.71506 11.1024 4.6345C11.1024 4.55394 11.0857 4.47426 11.0534 4.40047C11.021 4.32667 10.9738 4.26038 10.9146 4.20575Z"
            fill="white"
    />
</svg>