<svg width="16" height="16" viewBox="0 0 16 16" fill="none" xmlns="http://www.w3.org/2000/svg">
    <path d="M3.33398 12.0001H6.16065C6.24839 12.0006 6.33536 11.9838 6.41659 11.9506C6.49781 11.9175 6.57169 11.8686 6.63398 11.8068L11.2473 7.18679L13.1407 5.33346C13.2031 5.27148 13.2527 5.19775 13.2866 5.11651C13.3204 5.03527 13.3379 4.94813 13.3379 4.86012C13.3379 4.77211 13.3204 4.68498 13.2866 4.60374C13.2527 4.5225 13.2031 4.44876 13.1407 4.38679L10.314 1.52679C10.252 1.4643 10.1783 1.41471 10.097 1.38086C10.0158 1.34702 9.92866 1.32959 9.84065 1.32959C9.75264 1.32959 9.66551 1.34702 9.58427 1.38086C9.50303 1.41471 9.42929 1.4643 9.36732 1.52679L7.48732 3.41346L2.86065 8.03346C2.79886 8.09575 2.74998 8.16963 2.7168 8.25085C2.68363 8.33208 2.66681 8.41905 2.66732 8.50679V11.3335C2.66732 11.5103 2.73756 11.6798 2.86258 11.8049C2.9876 11.9299 3.15717 12.0001 3.33398 12.0001ZM9.84065 2.94012L11.7273 4.82679L10.7807 5.77346L8.89398 3.88679L9.84065 2.94012ZM4.00065 8.78012L7.95398 4.82679L9.84065 6.71346L5.88732 10.6668H4.00065V8.78012ZM14.0007 13.3335H2.00065C1.82384 13.3335 1.65427 13.4037 1.52925 13.5287C1.40422 13.6537 1.33398 13.8233 1.33398 14.0001C1.33398 14.1769 1.40422 14.3465 1.52925 14.4715C1.65427 14.5966 1.82384 14.6668 2.00065 14.6668H14.0007C14.1775 14.6668 14.347 14.5966 14.4721 14.4715C14.5971 14.3465 14.6673 14.1769 14.6673 14.0001C14.6673 13.8233 14.5971 13.6537 14.4721 13.5287C14.347 13.4037 14.1775 13.3335 14.0007 13.3335Z" fill="#666666"/>
</svg>
