<svg width="83" height="25" viewBox="0 0 83 25" fill="none" xmlns="http://www.w3.org/2000/svg">
    <path fill-rule="evenodd" clip-rule="evenodd" d="M60.0857 6.65157H53.5788V17.2073H60.0857V6.65157ZM50.6868 3.75958V17.2073H53.5787V20.0993L62.9777 20.0993V6.65157H62.9777V3.75958H62.9777V6.65157H60.0857V3.75958H50.6868Z" fill="black"/>
    <path d="M3.47046 6.34882H8.53144V20.2439H11.4686V6.34882H16.507V3.88611H3.47046V6.34882Z" fill="black"/>
    <path d="M21.3149 3.88611H18.3777V20.2439H21.3149V3.88611Z" fill="black"/>
    <path d="M23.9313 20.2439H34.0984V17.7586H26.8684V3.88611H23.9313V20.2439Z" fill="black"/>
    <path d="M36.0143 20.2439H42.6343C46.3735 20.2439 48.2149 18.3347 48.2149 15.793C48.2149 13.3077 46.4526 11.8617 44.7129 11.7713V11.6131C46.317 11.229 47.571 10.122 47.5823 8.13371C47.571 5.6936 45.82 3.88611 42.2728 3.88611H36.0143V20.2439ZM38.9515 17.7812V12.9688H42.2502C44.0803 12.98 45.2213 14.0984 45.2325 15.567C45.2213 16.8662 44.3288 17.7812 42.1824 17.7812H38.9515ZM38.9515 10.8449V6.32622H41.9791C43.7301 6.32622 44.6338 7.24126 44.6451 8.49521C44.6338 9.9525 43.4589 10.8449 41.9113 10.8449H38.9515Z" fill="black"/>
    <path d="M68.8339 3.88611H65.4448L70.551 12.065L65.377 20.2439H68.7661L72.4263 14.2792H72.5618L76.222 20.2439H79.6336L74.5049 12.065L79.5433 3.88611H76.1994L72.5618 9.89602H72.4263L68.8339 3.88611Z" fill="black"/>
</svg>
