<svg width="18" height="18" viewBox="0 0 18 18" fill="none" xmlns="http://www.w3.org/2000/svg">
    <rect width="18" height="18" rx="9" fill="#0068D5"/>
    <path d="M14.0323 5.4074C13.9626 5.3371 13.8797 5.2813 13.7883 5.24323C13.6969 5.20515 13.5988 5.18555 13.4998 5.18555C13.4008 5.18555 13.3028 5.20515 13.2114 5.24323C13.12 5.2813 13.0371 5.3371 12.9673 5.4074L7.37984 11.0024L5.03234 8.6474C4.95995 8.57747 4.87449 8.52248 4.78085 8.48558C4.68721 8.44868 4.58722 8.43058 4.48658 8.43232C4.38595 8.43406 4.28664 8.45561 4.19433 8.49573C4.10202 8.53585 4.01852 8.59375 3.94859 8.66615C3.87866 8.73854 3.82368 8.82399 3.78677 8.91763C3.74987 9.01128 3.73177 9.11127 3.73351 9.2119C3.73525 9.31254 3.7568 9.41185 3.79692 9.50416C3.83704 9.59646 3.89495 9.67997 3.96734 9.7499L6.84734 12.6299C6.91706 12.7002 7.00001 12.756 7.09141 12.7941C7.1828 12.8321 7.28083 12.8517 7.37984 12.8517C7.47885 12.8517 7.57688 12.8321 7.66827 12.7941C7.75967 12.756 7.84262 12.7002 7.91234 12.6299L14.0323 6.5099C14.1085 6.43966 14.1692 6.35443 14.2108 6.25955C14.2523 6.16468 14.2738 6.06222 14.2738 5.95865C14.2738 5.85507 14.2523 5.75262 14.2108 5.65774C14.1692 5.56287 14.1085 5.47763 14.0323 5.4074V5.4074Z" fill="white"/>
</svg>
